# xmcd
#
# Track frame offsets: 
#        150
#        16127
#        34298
#        56290
#        79116
#        95095
#
# Disc length: 1653 seconds
#
# Revision: 0
# Processed by: cddbd v1.5.2PL0 Copyright (c) Steve Scherf et al.
# Submitted via: ExactAudioCopyFreeDBPlugin 1.0
#
DISCID=40067306
DTITLE=Eric Roberson - Earth
DYEAR=2017
DGENRE=R&B
TTITLE0=Lokking For
TTITLE1=Million Dollars
TTITLE2=Dreams Don't Have Deadlines
TTITLE3=First Loved Jesus (feat. YPJ)
TTITLE4=The Hospital Song
TTITLE5=Superman (feat. Glenn Lewis)
EXTD=
EXTT0=
EXTT1=
EXTT2=
EXTT3=
EXTT4=
EXTT5=
PLAYORDER=
